<svg width="1440" height="102" viewBox="0 0 1440 102" fill="none" xmlns="http://www.w3.org/2000/svg">
<path fill-rule="evenodd" clip-rule="evenodd" d="M0 0L26.4 7.55556C52.8 15.1111 106.8 30.2222 159.6 47.2222C213.6 64.2222 266.4 83.1111 320.4 86.8889C373.2 90.6667 427.2 79.3333 480 62.3333C532.8 45.3333 586.8 22.6667 639.6 22.6667C693.6 22.6667 746.4 45.3333 800.4 45.3333C853.2 45.3333 907.2 22.6667 960 22.6667C1012.8 22.6667 1066.8 45.3333 1119.6 60.4444C1173.6 75.5556 1226.4 83.1111 1280.4 75.5556C1333.2 68 1387.2 45.3333 1413.6 34L1440 22.6667V102H1413.6C1387.2 102 1333.2 102 1280.4 102C1226.4 102 1173.6 102 1119.6 102C1066.8 102 1012.8 102 960 102C907.2 102 853.2 102 800.4 102C746.4 102 693.6 102 639.6 102C586.8 102 532.8 102 480 102C427.2 102 373.2 102 320.4 102C266.4 102 213.6 102 159.6 102C106.8 102 52.8 102 26.4 102H0V0Z" fill="#FDFDFD"/>
</svg>
